<?xml version="1.0" encoding="UTF-8" standalone="no"?>
<!-- Created with Inkscape (http://www.inkscape.org/) -->

<svg
   width="2000mm"
   height="2000mm"
   viewBox="0 0 2000 2000"
   version="1.1"
   id="svg1"
   xml:space="preserve"
   inkscape:version="1.4.2 (ebf0e940d0, 2025-05-08)"
   sodipodi:docname="logo.svg"
   xmlns:inkscape="http://www.inkscape.org/namespaces/inkscape"
   xmlns:sodipodi="http://sodipodi.sourceforge.net/DTD/sodipodi-0.dtd"
   xmlns="http://www.w3.org/2000/svg"
   xmlns:svg="http://www.w3.org/2000/svg"><sodipodi:namedview
     id="namedview1"
     pagecolor="#ffffff"
     bordercolor="#000000"
     borderopacity="0.25"
     inkscape:showpageshadow="2"
     inkscape:pageopacity="0.0"
     inkscape:pagecheckerboard="0"
     inkscape:deskcolor="#d1d1d1"
     inkscape:document-units="px"
     inkscape:zoom="0.043960972"
     inkscape:cx="2684.1991"
     inkscape:cy="4606.3586"
     inkscape:window-width="1512"
     inkscape:window-height="814"
     inkscape:window-x="0"
     inkscape:window-y="0"
     inkscape:window-maximized="1"
     inkscape:current-layer="layer1" /><defs
     id="defs1"><inkscape:path-effect
       effect="clone_original"
       css_properties=""
       attributes=""
       linkeditem="#text4"
       is_visible="true"
       method="bsplinespiro"
       allow_transforms="true"
       id="path-effect4"
       lpeversion="1" /><rect
       x="341.21174"
       y="-4754.217"
       width="523.19134"
       height="12988.794"
       id="rect3" /><rect
       x="-2161.0077"
       y="1273.8572"
       width="9986.1304"
       height="5231.9134"
       id="rect2" /><style
       id="style1">.cls-1{fill:none;stroke:#000000;stroke-linecap:round;stroke-linejoin:round;}</style></defs><g
     inkscape:label="Layer 1"
     inkscape:groupmode="layer"
     id="layer1"><g
       id="g1"
       transform="matrix(2.2397556,0,0,2.2397556,-209.46803,-7.8900276)"
       sodipodi:insensitive="true"><rect
         fill="#00b7ff"
         width="1080"
         height="900"
         id="rect1"
         x="0"
         y="0" /><g
         fill-opacity="0.1"
         id="g69"><polygon
           fill="#444444"
           points="90,150 0,300 180,300 "
           id="polygon1" /><polygon
           points="90,150 180,0 0,0 "
           id="polygon2" /><polygon
           fill="#aaaaaa"
           points="270,150 360,0 180,0 "
           id="polygon3" /><polygon
           fill="#dddddd"
           points="450,150 360,300 540,300 "
           id="polygon4" /><polygon
           fill="#999999"
           points="450,150 540,0 360,0 "
           id="polygon5" /><polygon
           points="630,150 540,300 720,300 "
           id="polygon6" /><polygon
           fill="#dddddd"
           points="630,150 720,0 540,0 "
           id="polygon7" /><polygon
           fill="#444444"
           points="810,150 720,300 900,300 "
           id="polygon8" /><polygon
           fill="#ffffff"
           points="810,150 900,0 720,0 "
           id="polygon9" /><polygon
           fill="#dddddd"
           points="990,150 900,300 1080,300 "
           id="polygon10" /><polygon
           fill="#444444"
           points="990,150 1080,0 900,0 "
           id="polygon11" /><polygon
           fill="#dddddd"
           points="90,450 0,600 180,600 "
           id="polygon12" /><polygon
           points="90,450 180,300 0,300 "
           id="polygon13" /><polygon
           fill="#666666"
           points="270,450 180,600 360,600 "
           id="polygon14" /><polygon
           fill="#aaaaaa"
           points="270,450 360,300 180,300 "
           id="polygon15" /><polygon
           fill="#dddddd"
           points="450,450 360,600 540,600 "
           id="polygon16" /><polygon
           fill="#999999"
           points="450,450 540,300 360,300 "
           id="polygon17" /><polygon
           fill="#999999"
           points="630,450 540,600 720,600 "
           id="polygon18" /><polygon
           fill="#ffffff"
           points="630,450 720,300 540,300 "
           id="polygon19" /><polygon
           points="810,450 720,600 900,600 "
           id="polygon20" /><polygon
           fill="#dddddd"
           points="810,450 900,300 720,300 "
           id="polygon21" /><polygon
           fill="#aaaaaa"
           points="990,450 900,600 1080,600 "
           id="polygon22" /><polygon
           fill="#444444"
           points="990,450 1080,300 900,300 "
           id="polygon23" /><polygon
           fill="#222222"
           points="90,750 0,900 180,900 "
           id="polygon24" /><polygon
           points="270,750 180,900 360,900 "
           id="polygon25" /><polygon
           fill="#dddddd"
           points="270,750 360,600 180,600 "
           id="polygon26" /><polygon
           points="450,750 540,600 360,600 "
           id="polygon27" /><polygon
           points="630,750 540,900 720,900 "
           id="polygon28" /><polygon
           fill="#444444"
           points="630,750 720,600 540,600 "
           id="polygon29" /><polygon
           fill="#aaaaaa"
           points="810,750 720,900 900,900 "
           id="polygon30" /><polygon
           fill="#666666"
           points="810,750 900,600 720,600 "
           id="polygon31" /><polygon
           fill="#999999"
           points="990,750 900,900 1080,900 "
           id="polygon32" /><polygon
           fill="#999999"
           points="180,0 90,150 270,150 "
           id="polygon33" /><polygon
           fill="#444444"
           points="360,0 270,150 450,150 "
           id="polygon34" /><polygon
           fill="#ffffff"
           points="540,0 450,150 630,150 "
           id="polygon35" /><polygon
           points="900,0 810,150 990,150 "
           id="polygon36" /><polygon
           fill="#222222"
           points="0,300 -90,450 90,450 "
           id="polygon37" /><polygon
           fill="#ffffff"
           points="0,300 90,150 -90,150 "
           id="polygon38" /><polygon
           fill="#ffffff"
           points="180,300 90,450 270,450 "
           id="polygon39" /><polygon
           fill="#666666"
           points="180,300 270,150 90,150 "
           id="polygon40" /><polygon
           fill="#222222"
           points="360,300 270,450 450,450 "
           id="polygon41" /><polygon
           fill="#ffffff"
           points="360,300 450,150 270,150 "
           id="polygon42" /><polygon
           fill="#444444"
           points="540,300 450,450 630,450 "
           id="polygon43" /><polygon
           fill="#222222"
           points="540,300 630,150 450,150 "
           id="polygon44" /><polygon
           fill="#aaaaaa"
           points="720,300 630,450 810,450 "
           id="polygon45" /><polygon
           fill="#666666"
           points="720,300 810,150 630,150 "
           id="polygon46" /><polygon
           fill="#ffffff"
           points="900,300 810,450 990,450 "
           id="polygon47" /><polygon
           fill="#999999"
           points="900,300 990,150 810,150 "
           id="polygon48" /><polygon
           points="0,600 -90,750 90,750 "
           id="polygon49" /><polygon
           fill="#666666"
           points="0,600 90,450 -90,450 "
           id="polygon50" /><polygon
           fill="#aaaaaa"
           points="180,600 90,750 270,750 "
           id="polygon51" /><polygon
           fill="#444444"
           points="180,600 270,450 90,450 "
           id="polygon52" /><polygon
           fill="#444444"
           points="360,600 270,750 450,750 "
           id="polygon53" /><polygon
           fill="#999999"
           points="360,600 450,450 270,450 "
           id="polygon54" /><polygon
           fill="#666666"
           points="540,600 630,450 450,450 "
           id="polygon55" /><polygon
           fill="#222222"
           points="720,600 630,750 810,750 "
           id="polygon56" /><polygon
           fill="#ffffff"
           points="900,600 810,750 990,750 "
           id="polygon57" /><polygon
           fill="#222222"
           points="900,600 990,450 810,450 "
           id="polygon58" /><polygon
           fill="#dddddd"
           points="90,750 -90,750 0,900 "
           id="polygon59" /><polygon
           fill="#444444"
           points="180,900 270,750 90,750 "
           id="polygon60" /><polygon
           fill="#ffffff"
           points="360,900 450,750 270,750 "
           id="polygon61" /><polygon
           fill="#aaaaaa"
           points="540,900 630,750 450,750 "
           id="polygon62" /><polygon
           fill="#ffffff"
           points="720,900 810,750 630,750 "
           id="polygon63" /><polygon
           fill="#222222"
           points="900,900 990,750 810,750 "
           id="polygon64" /><polygon
           fill="#222222"
           points="1080,300 990,450 1170,450 "
           id="polygon65" /><polygon
           fill="#ffffff"
           points="1080,300 1170,150 990,150 "
           id="polygon66" /><polygon
           points="1080,600 990,750 1170,750 "
           id="polygon67" /><polygon
           fill="#666666"
           points="1080,600 1170,450 990,450 "
           id="polygon68" /><polygon
           fill="#dddddd"
           points="1080,900 1170,750 990,750 "
           id="polygon69" /></g></g><path
       class="cls-1"
       d="M 359.4126,84.20597 A 93.687389,93.687389 0 0 0 268.06712,177.8933 V 1822.107 a 93.687389,93.687389 0 0 0 91.34548,93.687 H 1638.246 a 93.687389,93.687389 0 0 0 93.6869,-93.687 V 175.55107 a 93.687389,93.687389 0 0 0 -93.6869,-91.3451 h -93.688 V 497.36732 L 1363.7417,314.20845 1181.9882,497.36732 V 84.20597 Z m 273.56759,936.87333 h 778.54201 m -778.54201,547.1349 h 594.44661 m -594.44661,-274.036 h 456.25761"
       id="path1"
       style="opacity:1;fill:#ffc107;fill-opacity:1;stroke-width:46.8437" /><text
       xml:space="preserve"
       transform="scale(0.26458333)"
       id="text3"
       style="font-size:192px;font-family:'URW Gothic';-inkscape-font-specification:'URW Gothic';text-align:start;writing-mode:lr-tb;direction:ltr;white-space:pre;shape-inside:url(#rect3);display:inline;opacity:1;fill:#ffc107;fill-opacity:1"><tspan
         x="341.21094"
         y="-4588.3288"
         id="tspan2"> </tspan></text></g></svg>
